<svg width="1024" height="1024" viewBox="0 0 1024 1024" fill="none" xmlns="http://www.w3.org/2000/svg">
  <path d="M213.333 106.667h117.333v10.667h-117.333z M341.333 106.667h21.333v10.667h-21.333z M181.333 117.333h192.000v10.667h-192.000z M160.000 128.000h234.667v10.667h-234.667z M149.333 138.667h256.000v10.667h-256.000z M117.333 149.333h309.333v10.667h-309.333z M106.667 160.000h341.333v10.667h-341.333z M96.000 170.667h352.000v10.667h-352.000z M85.333 181.333h384.000v10.667h-384.000z M74.667 192.000h405.333v10.667h-405.333z M64.000 202.667h426.667v10.667h-426.667z M53.333 213.333h448.000v10.667h-448.000z M53.333 224.000h458.667v10.667h-458.667z M42.667 234.667h469.333v10.667h-469.333z M42.667 245.333h480.000v10.667h-480.000z M32.000 256.000h490.667v10.667h-490.667z M32.000 266.667h501.333v10.667h-501.333z M970.667 266.667h10.667v10.667h-10.667z M21.333 277.333h512.000v10.667h-512.000z M970.667 277.333h21.333v10.667h-21.333z M10.667 288.000h522.667v10.667h-522.667z M960.000 288.000h42.667v10.667h-42.667z M10.667 298.667h533.333v10.667h-533.333z M960.000 298.667h42.667v10.667h-42.667z M10.667 309.333h512.000v10.667h-512.000z M949.333 309.333h53.333v10.667h-53.333z M10.667 320.000h512.000v10.667h-512.000z M938.667 320.000h74.667v10.667h-74.667z M10.667 330.667h224.000v10.667h-224.000z M245.333 330.667h266.667v10.667h-266.667z M938.667 330.667h74.667v10.667h-74.667z M10.667 341.333h501.333v10.667h-501.333z M928.000 341.333h85.333v10.667h-85.333z M21.333 352.000h480.000v10.667h-480.000z M928.000 352.000h85.333v10.667h-85.333z M21.333 362.667h469.333v10.667h-469.333z M917.333 362.667h96.000v10.667h-96.000z M32.000 373.333h512.000v10.667h-512.000z M629.333 373.333h10.667v10.667h-10.667z M906.667 373.333h106.667v10.667h-106.667z M53.333 384.000h704.000v10.667h-704.000z M896.000 384.000h106.667v10.667h-106.667z M64.000 394.667h736.000v10.667h-736.000z M885.333 394.667h117.333v10.667h-117.333z M74.667 405.333h746.667v10.667h-746.667z M864.000 405.333h138.667v10.667h-138.667z M85.333 416.000h906.667v10.667h-906.667z M85.333 426.667h53.333v10.667h-53.333z M160.000 426.667h661.333v10.667h-661.333z M832.000 426.667h149.333v10.667h-149.333z M117.333 437.333h10.667v10.667h-10.667z M160.000 437.333h810.667v10.667h-810.667z M160.000 448.000h800.000v10.667h-800.000z M170.667 458.667h234.667v10.667h-234.667z M416.000 458.667h533.333v10.667h-533.333z M170.667 469.333h757.333v10.667h-757.333z M170.667 480.000h682.667v10.667h-682.667z M874.667 480.000h53.333v10.667h-53.333z M170.667 490.667h757.333v10.667h-757.333z M170.667 501.333h746.667v10.667h-746.667z M181.333 512.000h736.000v10.667h-736.000z M181.333 522.667h746.667v10.667h-746.667z M192.000 533.333h736.000v10.667h-736.000z M181.333 544.000h746.667v10.667h-746.667z M181.333 554.667h757.333v10.667h-757.333z M181.333 565.333h661.333v10.667h-661.333z M864.000 565.333h74.667v10.667h-74.667z M192.000 576.000h746.667v10.667h-746.667z M192.000 586.667h746.667v10.667h-746.667z M192.000 597.333h746.667v10.667h-746.667z M224.000 608.000h714.667v10.667h-714.667z M224.000 618.667h714.667v10.667h-714.667z M213.333 629.333h725.333v10.667h-725.333z M224.000 640.000h714.667v10.667h-714.667z M234.667 650.667h341.333v10.667h-341.333z M586.667 650.667h10.667v10.667h-10.667z M629.333 650.667h10.667v10.667h-10.667z M672.000 650.667h277.333v10.667h-277.333z M245.333 661.333h277.333v10.667h-277.333z M682.667 661.333h266.667v10.667h-266.667z M245.333 672.000h234.667v10.667h-234.667z M682.667 672.000h266.667v10.667h-266.667z M256.000 682.667h202.667v10.667h-202.667z M693.333 682.667h266.667v10.667h-266.667z M256.000 693.333h202.667v10.667h-202.667z M693.333 693.333h266.667v10.667h-266.667z M256.000 704.000h202.667v10.667h-202.667z M693.333 704.000h106.667v10.667h-106.667z M810.667 704.000h149.333v10.667h-149.333z M256.000 714.667h202.667v10.667h-202.667z M704.000 714.667h106.667v10.667h-106.667z M821.333 714.667h149.333v10.667h-149.333z M245.333 725.333h202.667v10.667h-202.667z M704.000 725.333h106.667v10.667h-106.667z M832.000 725.333h138.667v10.667h-138.667z M245.333 736.000h202.667v10.667h-202.667z M714.667 736.000h96.000v10.667h-96.000z M842.667 736.000h128.000v10.667h-128.000z M245.333 746.667h106.667v10.667h-106.667z M362.667 746.667h85.333v10.667h-85.333z M714.667 746.667h96.000v10.667h-96.000z M853.333 746.667h117.333v10.667h-117.333z M245.333 757.333h202.667v10.667h-202.667z M725.333 757.333h85.333v10.667h-85.333z M864.000 757.333h117.333v10.667h-117.333z M245.333 768.000h96.000v10.667h-96.000z M352.000 768.000h96.000v10.667h-96.000z M725.333 768.000h85.333v10.667h-85.333z M874.667 768.000h106.667v10.667h-106.667z M234.667 778.667h96.000v10.667h-96.000z M352.000 778.667h96.000v10.667h-96.000z M725.333 778.667h85.333v10.667h-85.333z M874.667 778.667h106.667v10.667h-106.667z M234.667 789.333h96.000v10.667h-96.000z M352.000 789.333h96.000v10.667h-96.000z M704.000 789.333h106.667v10.667h-106.667z M874.667 789.333h106.667v10.667h-106.667z M234.667 800.000h96.000v10.667h-96.000z M352.000 800.000h96.000v10.667h-96.000z M693.333 800.000h106.667v10.667h-106.667z M885.333 800.000h96.000v10.667h-96.000z M213.333 810.667h106.667v10.667h-106.667z M352.000 810.667h96.000v10.667h-96.000z M682.667 810.667h117.333v10.667h-117.333z M874.667 810.667h106.667v10.667h-106.667z M202.667 821.333h117.333v10.667h-117.333z M352.000 821.333h96.000v10.667h-96.000z M682.667 821.333h117.333v10.667h-117.333z M874.667 821.333h106.667v10.667h-106.667z M202.667 832.000h106.667v10.667h-106.667z M341.333 832.000h106.667v10.667h-106.667z M682.667 832.000h117.333v10.667h-117.333z M874.667 832.000h106.667v10.667h-106.667z M202.667 842.667h106.667v10.667h-106.667z M330.667 842.667h106.667v10.667h-106.667z M682.667 842.667h117.333v10.667h-117.333z M864.000 842.667h117.333v10.667h-117.333z M202.667 853.333h96.000v10.667h-96.000z M330.667 853.333h106.667v10.667h-106.667z M682.667 853.333h96.000v10.667h-96.000z M864.000 853.333h128.000v10.667h-128.000z M202.667 864.000h74.667v10.667h-74.667z M330.667 864.000h106.667v10.667h-106.667z M853.333 864.000h117.333v10.667h-117.333z M330.667 874.667h106.667v10.667h-106.667z M853.333 874.667h117.333v10.667h-117.333z M330.667 885.333h96.000v10.667h-96.000z M864.000 885.333h96.000v10.667h-96.000z M341.333 896.000h74.667v10.667h-74.667z M885.333 896.000h21.333v10.667h-21.333z M928.000 896.000h10.667v10.667h-10.667z M384.000 906.667h32.000v10.667h-32.000z" fill="white"/>
</svg>
